<svg width="2523" height="869" viewBox="0 0 2523 869" fill="none" xmlns="http://www.w3.org/2000/svg">
<mask id="mask0_1_27" style="mask-type:alpha" maskUnits="userSpaceOnUse" x="1034" y="555" width="134" height="121">
<ellipse cx="1101" cy="615.5" rx="67" ry="60.5" fill="#D9D9D9"/>
</mask>
<g mask="url(#mask0_1_27)">
<path d="M1211.69 576.268C1204.35 569.024 1194.29 559.102 1191.98 553.431C1189.94 548.428 1183.84 544.941 1174.76 540.191C1173.69 539.633 1172.65 539.091 1171.71 538.584V528.21H1172.14C1183.34 528.21 1192.45 519.263 1192.45 508.265C1192.45 504.749 1189.54 501.899 1185.97 501.899C1182.39 501.899 1179.49 504.748 1179.49 508.265C1179.49 512.243 1176.19 515.48 1172.14 515.48H1154.16C1153.09 513.908 1151.47 510.57 1151.07 504.411C1156.24 499.858 1170.33 485.913 1171.69 467.999C1171.96 464.493 1169.28 461.439 1165.71 461.177C1162.14 460.912 1159.03 463.545 1158.77 467.052C1157.8 479.804 1147.05 490.73 1142.71 494.647C1141.79 494.406 1140.9 494.093 1140.03 493.747C1145.85 486.066 1150.97 475.317 1150.97 467.526C1150.97 464.01 1148.07 461.16 1144.49 461.16C1140.92 461.16 1138.02 464.009 1138.02 467.526C1138.02 471.631 1134.13 480.363 1129.37 486.526C1126.81 484.016 1124.89 481.521 1123.74 479.881C1126.87 463.456 1122.74 443.4 1114.36 435.712C1111.74 433.314 1107.64 433.451 1105.2 436.022C1102.76 438.592 1102.9 442.62 1105.52 445.019C1109.88 449.017 1114 465.668 1110.55 479.601C1110.17 481.168 1110.4 482.821 1111.2 484.226C1111.47 484.697 1115.15 491.004 1121.79 497.012C1113.62 493.673 1104.33 488.058 1095.66 478.66C1095.4 466.448 1093.19 451.494 1087.63 443.55C1085.6 440.654 1081.57 439.921 1078.62 441.911C1075.67 443.903 1074.93 447.867 1076.95 450.763C1079.51 454.413 1081.52 462.722 1082.33 472.146L1070.52 468.277C1067.13 467.168 1063.46 468.967 1062.32 472.302C1061.19 475.638 1063.03 479.244 1066.42 480.354L1085.48 486.598C1105.52 508.694 1128.96 513.416 1139.64 514.387C1140.26 516.57 1141.02 518.413 1141.82 519.967C1139.24 518.337 1136.21 516.896 1132.63 515.779C1129.89 514.925 1126.9 515.949 1125.29 518.296C1124.76 519.086 1122.04 523.395 1121.74 530.685C1121.42 538.385 1123.84 546.402 1128.94 554.578C1124.6 558.038 1117.5 563.508 1109.63 568.788C1087.04 583.941 1078.63 583.874 1076.59 583.493C1063.1 580.968 1049.74 581.954 1039 582.747C1034.58 583.074 1030.42 583.381 1027 583.381C1016.63 583.381 997.437 580.118 978.874 576.962C958.165 573.442 936.752 569.801 923.326 569.801C904.689 569.801 886.061 578.773 873.717 586.3C860.135 594.581 847.362 605.449 841.931 613.343C835.591 622.56 837.661 629.936 839.323 635.862C840.092 638.606 840.82 641.198 840.82 644.066C840.82 647.757 837.309 652.349 834.213 656.4C830.505 661.254 827 665.84 827 671.224C827 674.74 829.9 677.605 833.479 677.605C837.057 677.605 839.958 674.769 839.958 671.253C840.073 669.938 842.784 666.391 844.579 664.044C848.675 658.685 853.771 652.016 853.781 644.088C854.976 646.048 856.288 647.895 857.718 649.682C863.59 665.32 861.865 681.896 852.577 698.959C845.356 712.225 836.074 720.794 835.989 720.872C834.666 722.076 833.912 723.77 833.912 725.544V777.345C833.91 777.425 833.91 777.505 833.912 777.585V793.444C833.912 794.127 834.024 794.807 834.245 795.457L841.156 815.827C842.038 818.426 844.514 820.179 847.303 820.179H861.125C863.425 820.179 865.552 818.982 866.716 817.032C867.878 815.083 867.903 812.673 866.778 810.703L846.87 775.798V766.511C847.877 749.246 864.589 733.093 879.339 718.837C883.999 714.333 888.531 709.948 892.51 705.612C892.309 706.733 892.083 707.864 891.799 709.021C889.071 720.135 883.404 728.767 883.353 728.843C882.265 730.472 881.996 732.5 882.624 734.348L903.358 795.457C903.54 795.994 903.794 796.504 904.114 796.975L917.937 817.345C919.139 819.116 921.161 820.179 923.328 820.179H937.15C939.704 820.179 942.018 818.706 943.062 816.418C944.107 814.13 943.686 811.452 941.988 809.578L909.743 774.019L903.775 756.429C908.56 741.002 922.96 724.762 936.895 709.053C942.283 702.977 947.569 697.017 952.204 691.18C960.243 692.091 983.243 694.451 1006.07 694.451C1015.94 694.451 1025.77 694.004 1034.34 692.812V738.34L1020.71 791.899C1020.41 793.074 1020.46 794.308 1020.85 795.457L1027.76 815.827C1028.65 818.426 1031.12 820.179 1033.91 820.179H1047.73C1050.03 820.179 1052.15 818.99 1053.31 817.049C1054.48 815.111 1054.51 812.711 1053.4 810.739L1036.8 781.17L1046.99 741.104L1052.18 728.546L1055.08 739.908V777.345C1055.07 777.425 1055.07 777.506 1055.08 777.587V793.444C1055.08 794.128 1055.19 794.808 1055.41 795.457L1062.32 815.827C1063.2 818.427 1065.68 820.18 1068.47 820.18H1082.29C1084.59 820.18 1086.72 818.983 1087.88 817.033C1089.04 815.084 1089.07 812.674 1087.94 810.703L1068.04 775.799V740.45C1070.41 735.018 1079.48 713.527 1081.47 697.371C1095.02 695.068 1115.24 685.574 1122.72 660.625C1127.78 654.432 1153.12 623.076 1163.18 605.103C1169.9 607.539 1181.29 610.814 1191.86 609.85C1198.97 612.944 1205.02 614.506 1210.06 614.506C1213.78 614.506 1216.96 613.667 1219.64 611.993C1223 609.892 1227 605.505 1227 596.536C1227 591.568 1222.58 587.009 1211.69 576.268ZM870.252 709.76C862.218 717.523 853.667 725.795 846.87 734.811V728.186C850.376 724.608 857.656 716.511 863.802 705.336C870.994 692.259 874.41 678.967 874.005 666.058C877.074 668.9 880.481 672.081 884.191 675.725C887.335 678.813 889.66 682.308 891.169 686.189C887.35 693.227 879.043 701.265 870.252 709.76ZM1212.68 601.253C1212.29 601.497 1208.52 603.454 1195.69 597.592C1195.68 597.583 1195.66 597.576 1195.64 597.568C1195.63 597.565 1195.62 597.56 1195.62 597.557C1195.6 597.549 1195.58 597.543 1195.56 597.534C1195.39 597.456 1195.21 597.384 1195.03 597.322C1194.97 597.303 1194.92 597.289 1194.86 597.272C1194.72 597.226 1194.57 597.182 1194.42 597.146C1194.34 597.124 1194.25 597.11 1194.16 597.092C1194.05 597.069 1193.93 597.044 1193.81 597.027C1193.7 597.01 1193.58 597.001 1193.46 596.99C1193.37 596.982 1193.28 596.971 1193.19 596.967C1193.04 596.96 1192.89 596.962 1192.74 596.965C1192.68 596.966 1192.62 596.964 1192.56 596.967C1192.36 596.976 1192.17 596.996 1191.97 597.024C1191.96 597.025 1191.94 597.025 1191.93 597.027C1191.92 597.028 1191.91 597.029 1191.89 597.031C1191.88 597.033 1191.87 597.034 1191.86 597.035C1179.35 598.799 1162.99 591.284 1162.83 591.211C1161.22 590.458 1159.37 590.389 1157.71 591.02C1156.05 591.65 1154.73 592.924 1154.05 594.542C1148.68 607.407 1121.74 641.567 1111.81 653.643C1111.24 654.33 1110.83 655.125 1110.6 655.977C1102.82 684.158 1076.36 685.198 1075.27 685.227C1071.73 685.29 1068.9 688.121 1068.9 691.592C1068.9 698.558 1066.06 708.838 1062.88 718.079L1054.21 684.019V671.223C1054.21 667.707 1051.31 664.857 1047.73 664.857C1044.16 664.857 1041.25 667.706 1041.25 671.223V678.542C1020.07 684.105 979.358 681.074 960.7 679.256C965.076 672.121 967.82 665.193 967.82 658.493C967.82 654.977 964.919 652.127 961.34 652.127C957.762 652.127 954.861 654.976 954.861 658.493C954.861 669.418 940.761 685.316 927.125 700.689C916.232 712.97 905.073 725.555 897.697 738.517L895.855 733.088C898.075 729.222 901.98 721.611 904.3 712.383C908.904 694.072 905.117 678.282 893.351 666.722C888.966 662.413 885.036 658.777 881.57 655.568C870.912 645.707 865.042 640.275 861.474 630.344C857.772 620.039 860.835 611.676 863.213 609.684C863.411 609.517 863.593 609.34 863.766 609.157C878.338 596.958 902.807 582.529 923.327 582.529C935.639 582.529 956.496 586.075 976.665 589.504C996.646 592.901 1015.52 596.11 1027 596.11C1030.9 596.11 1035.31 595.784 1039.97 595.441C1050.46 594.666 1062.36 593.789 1074.17 595.997C1094.36 599.78 1134.06 567.185 1141.82 560.613C1144.38 558.44 1144.81 554.694 1142.8 552.016C1135.59 542.412 1134.38 535.146 1134.71 530.627C1142.28 535.401 1143.13 542.472 1143.21 543.472C1143.44 546.952 1146.48 549.606 1150.03 549.42C1153.6 549.228 1156.34 546.227 1156.15 542.716C1156.12 542.231 1155.64 535.209 1150.57 528.152C1150.84 528.187 1151.12 528.21 1151.41 528.21H1158.75V542.214C1158.75 544.342 1159.83 546.33 1161.63 547.51C1163.47 548.712 1165.99 550.032 1168.66 551.429C1171.92 553.129 1178.62 556.636 1180.05 558.408C1180.08 558.47 1180.11 558.532 1180.14 558.594H1179.92C1176.34 558.594 1173.44 561.443 1173.44 564.96C1173.44 568.476 1176.34 571.326 1179.92 571.326H1188.27C1188.51 571.326 1188.75 571.31 1188.98 571.285C1193.1 575.969 1197.96 580.761 1202.51 585.25C1206.77 589.449 1212.49 595.093 1214.02 597.457C1213.91 599.421 1213.43 600.783 1212.68 601.253Z" fill="#1F9A58"/>
</g>
<path d="M108 314.4C108 322 105.4 328.6 100.2 334.2C95 339.4 87.8 342 78.6 342C71 342 64 338.2 57.6 330.6C51.6 322.6 48.6 314.4 48.6 306C48.6 298 51 291.2 55.8 285.6C61 280 68.6 277.2 78.6 277.2C85.8 277.2 92.4 281.2 98.4 289.2C104.8 297.2 108 305.6 108 314.4ZM58.2 475.2C58.2 471.2 58 465 57.6 456.6C57.2 448.2 56.8 439.6 56.4 430.8C56.4 422 56.4 415.4 56.4 411C56.4 407.4 60.2 405.6 67.8 405.6C74.6 405.6 81.8 407.2 89.4 410.4C97 413.2 100.8 417 100.8 421.8C100.8 425 100.6 430 100.2 436.8C100.2 443.2 100 450 99.6 457.2C99.6 464.4 99.6 470.4 99.6 475.2V633C99.6 635.4 99.8 640.8 100.2 649.2C100.6 657.6 100.8 666.4 100.8 675.6C101.2 684.8 101.4 691.8 101.4 696.6C101.4 700.2 97.6 702 90 702C83.6 702 76.4 700.4 68.4 697.2C60.8 694.4 57 690.6 57 685.8C57 682.6 57 677.4 57 670.2C57.4 662.6 57.6 655.2 57.6 648C58 640.8 58.2 635.8 58.2 633V475.2ZM414.417 685.8C414.817 682.6 415.017 677.2 415.017 669.6C415.017 662 415.017 654.2 415.017 646.2C415.417 637.8 415.617 631.4 415.617 627V520.2C415.617 496.6 412.417 477.8 406.017 463.8C399.617 449.4 386.417 442.2 366.417 442.2C352.817 442.2 339.017 444.8 325.017 450C311.417 455.2 299.017 463.8 287.817 475.8C276.617 487.8 268.017 503.8 262.017 523.8C259.217 533.8 257.017 545.6 255.417 559.2C254.217 572.4 253.417 585.6 253.017 598.8C253.017 612 252.817 623.4 252.417 633V642.6C252.417 652.2 252.617 661.6 253.017 670.8C253.417 680 253.817 688.6 254.217 696.6C254.217 700.6 250.417 702.6 242.817 702.6C236.417 702.6 229.617 701 222.417 697.8C215.217 695 211.617 691 211.617 685.8C211.617 682.6 211.617 676.8 211.617 668.4C212.017 660 212.217 651.8 212.217 643.8C212.617 635.4 212.817 629.8 212.817 627V477.6C212.817 473.6 212.617 467.4 212.217 459C211.817 450.6 211.417 442 211.017 433.2C211.017 424.4 211.017 417.8 211.017 413.4C211.017 409.4 214.817 407.4 222.417 407.4C228.817 407.4 235.617 409 242.817 412.2C250.017 415 253.617 419 253.617 424.2C253.617 424.2 253.417 427 253.017 432.6C253.017 438.2 252.817 444.6 252.417 451.8C252.417 459 252.417 465.2 252.417 470.4C265.217 449.2 281.817 433 302.217 421.8C323.017 410.6 344.417 405 366.417 405C385.617 405 401.017 408.6 412.617 415.8C424.617 422.6 433.617 431.6 439.617 442.8C446.017 454 450.217 466.2 452.217 479.4C454.217 492.6 455.217 505.4 455.217 517.8V633C455.217 635.4 455.417 640.8 455.817 649.2C456.217 657.6 456.417 666.4 456.417 675.6C456.817 684.8 457.017 691.8 457.017 696.6C457.017 700.6 453.217 702.6 445.617 702.6C439.217 702.6 432.417 701 425.217 697.8C418.017 695 414.417 691.2 414.417 686.4V685.8ZM578.152 441.6H575.152C566.352 441.6 559.552 442 554.752 442.8C549.952 443.2 544.552 443.6 538.552 444H537.952C532.752 444 528.352 441 524.752 435C521.152 429 519.352 423.4 519.352 418.2C519.352 412.6 521.552 409.8 525.952 409.8H578.152V379.2C578.152 375.2 577.952 369 577.552 360.6C577.552 352.2 577.352 343.6 576.952 334.8C576.952 326 576.952 319.4 576.952 315C576.952 313 578.152 311.6 580.552 310.8C582.952 309.6 585.752 309 588.952 309C595.352 309 602.152 310.6 609.352 313.8C616.552 316.6 620.152 320.6 620.152 325.8C620.152 329 619.952 334 619.552 340.8C619.552 347.2 619.352 354 618.952 361.2C618.952 368.4 618.952 374.4 618.952 379.2V408L635.752 407.4C642.952 407 651.352 406.4 660.952 405.6C670.552 404.8 677.352 404.2 681.352 403.8H681.952C687.152 403.8 691.552 406.8 695.152 412.8C699.152 418.8 701.152 424.4 701.152 429.6C701.152 435.6 698.752 438.6 693.952 438.6C689.952 438.6 682.352 438.6 671.152 438.6C659.952 438.6 650.352 438.8 642.352 439.2L618.952 439.8V631.2C618.952 647.2 620.352 657.4 623.152 661.8C625.952 666.2 631.752 668.4 640.552 668.4C647.352 668.4 655.752 666.2 665.752 661.8C676.152 657.4 686.352 651.4 696.352 643.8C703.152 638.6 708.552 636 712.552 636C716.552 636 718.552 638.2 718.552 642.6C718.552 646.2 715.952 651.6 710.752 658.8C705.952 665.6 699.352 672.8 690.952 680.4C682.952 687.6 673.952 693.8 663.952 699C654.352 704.2 644.752 706.8 635.152 706.8C614.352 706.8 599.552 700.4 590.752 687.6C582.352 674.8 578.152 655.6 578.152 630V441.6ZM782.963 475.8C782.963 471.8 782.763 465.6 782.363 457.2C781.963 448.8 781.563 440.2 781.163 431.4C781.163 422.6 781.163 416 781.163 411.6C781.163 407.6 785.163 405.6 793.163 405.6C799.563 405.6 806.363 407.2 813.563 410.4C821.163 413.2 824.963 417.2 824.963 422.4C824.963 426.4 824.563 430.8 823.763 435.6C823.363 440.4 823.163 446.2 823.163 453C831.163 439.8 842.563 428.4 857.363 418.8C872.163 409.2 889.963 404.4 910.763 404.4C922.763 404.4 933.963 406.4 944.363 410.4C954.763 414.4 963.163 419.2 969.563 424.8C976.363 430.4 979.763 435.6 979.763 440.4C979.763 446.8 977.363 453.6 972.563 460.8C968.163 468 963.363 471.6 958.163 471.6C954.963 471.6 952.163 469.6 949.763 465.6C945.763 458 939.363 452.4 930.563 448.8C922.163 445.2 914.963 443.4 908.963 443.4C892.163 443.4 876.563 448.6 862.163 459C848.163 469.4 837.763 485.4 830.963 507C828.163 515.8 826.163 525.6 824.963 536.4C823.763 547.2 822.963 560.2 822.563 575.4C822.563 590.6 822.563 609.6 822.563 632.4C822.563 644.8 822.963 656.8 823.763 668.4C824.963 680 825.563 689.2 825.563 696C825.563 700 821.563 702 813.563 702C807.163 702 800.163 700.4 792.563 697.2C785.363 694.4 781.763 690.4 781.763 685.2C781.763 682 781.763 676.8 781.763 669.6C782.163 662 782.363 654.6 782.363 647.4C782.763 640.2 782.963 635.2 782.963 632.4V475.8ZM1277.78 421.8C1276.58 430.6 1275.38 442.4 1274.18 457.2C1273.38 471.6 1272.58 487 1271.78 503.4C1271.38 519.4 1270.98 534.4 1270.58 548.4C1270.18 562.4 1269.98 573 1269.98 580.2C1269.98 585.8 1270.18 594.2 1270.58 605.4C1271.38 616.2 1273.18 627.8 1275.98 640.2C1279.18 652.6 1284.18 664.2 1290.98 675C1291.78 676.6 1292.18 677.8 1292.18 678.6C1292.18 683 1289.38 688.4 1283.78 694.8C1278.58 700.8 1272.58 703.8 1265.78 703.8C1259.78 703.8 1254.38 699.6 1249.58 691.2C1245.18 682.4 1241.58 672 1238.78 660C1236.38 647.6 1234.58 636 1233.38 625.2C1218.58 653.2 1200.58 673.8 1179.38 687C1158.58 700.2 1136.98 706.8 1114.58 706.8C1085.38 706.8 1061.98 697 1044.38 677.4C1026.78 657.4 1017.98 628.6 1017.98 591C1017.98 565.4 1022.18 541.4 1030.58 519C1038.98 496.6 1050.18 476.8 1064.18 459.6C1078.58 442.4 1094.58 429 1112.18 419.4C1129.78 409.4 1147.78 404.4 1166.18 404.4C1180.18 404.4 1192.98 407.6 1204.58 414C1216.18 420 1225.38 430 1232.18 444V411C1232.18 407 1236.38 405 1244.78 405C1251.58 405 1258.78 406.4 1266.38 409.2C1273.98 412 1277.78 415.8 1277.78 420.6V421.8ZM1231.58 468C1227.98 471.6 1224.58 473.4 1221.38 473.4C1219.78 473.4 1218.38 472.6 1217.18 471C1210.38 459.4 1202.38 451.2 1193.18 446.4C1184.38 441.6 1175.38 439.2 1166.18 439.2C1153.78 439.2 1141.18 443 1128.38 450.6C1115.98 457.8 1104.38 468.2 1093.58 481.8C1083.18 495 1074.78 510.8 1068.38 529.2C1061.98 547.2 1058.78 566.8 1058.78 588C1058.78 618.4 1063.98 639.8 1074.38 652.2C1084.78 664.6 1097.98 670.8 1113.98 670.8C1133.18 670.8 1151.38 664.6 1168.58 652.2C1185.78 639.4 1199.98 621.8 1211.18 599.4C1222.78 577 1229.18 551 1230.38 521.4C1230.78 515.8 1230.98 508 1230.98 498C1230.98 488 1231.18 478 1231.58 468Z" fill="#FFA800"/>
<path d="M1387.69 342C1387.69 338 1387.49 331.8 1387.09 323.4C1386.69 315 1386.29 306.4 1385.89 297.6C1385.89 288.8 1385.89 282.2 1385.89 277.8C1385.89 275.8 1387.09 274.4 1389.49 273.6C1391.89 272.4 1394.69 271.8 1397.89 271.8C1404.69 271.8 1411.69 273.4 1418.89 276.6C1426.49 279.4 1430.29 283.4 1430.29 288.6C1430.29 291.8 1430.09 296.8 1429.69 303.6C1429.69 310 1429.49 316.8 1429.09 324C1429.09 331.2 1429.09 337.2 1429.09 342V633C1429.09 635.4 1429.29 640.8 1429.69 649.2C1430.09 657.6 1430.29 666.4 1430.29 675.6C1430.69 684.8 1430.89 691.8 1430.89 696.6C1430.89 698.6 1429.69 700 1427.29 700.8C1424.89 702 1422.09 702.6 1418.89 702.6C1412.49 702.6 1405.49 701 1397.89 697.8C1390.29 695 1386.49 691 1386.49 685.8C1386.49 682.6 1386.49 677.4 1386.49 670.2C1386.89 662.6 1387.09 655.2 1387.09 648C1387.49 640.8 1387.69 635.8 1387.69 633V342ZM1595.11 314.4C1595.11 322 1592.51 328.6 1587.31 334.2C1582.11 339.4 1574.91 342 1565.71 342C1558.11 342 1551.11 338.2 1544.71 330.6C1538.71 322.6 1535.71 314.4 1535.71 306C1535.71 298 1538.11 291.2 1542.91 285.6C1548.11 280 1555.71 277.2 1565.71 277.2C1572.91 277.2 1579.51 281.2 1585.51 289.2C1591.91 297.2 1595.11 305.6 1595.11 314.4ZM1545.31 475.2C1545.31 471.2 1545.11 465 1544.71 456.6C1544.31 448.2 1543.91 439.6 1543.51 430.8C1543.51 422 1543.51 415.4 1543.51 411C1543.51 407.4 1547.31 405.6 1554.91 405.6C1561.71 405.6 1568.91 407.2 1576.51 410.4C1584.11 413.2 1587.91 417 1587.91 421.8C1587.91 425 1587.71 430 1587.31 436.8C1587.31 443.2 1587.11 450 1586.71 457.2C1586.71 464.4 1586.71 470.4 1586.71 475.2V633C1586.71 635.4 1586.91 640.8 1587.31 649.2C1587.71 657.6 1587.91 666.4 1587.91 675.6C1588.31 684.8 1588.51 691.8 1588.51 696.6C1588.51 700.2 1584.71 702 1577.11 702C1570.71 702 1563.51 700.4 1555.51 697.2C1547.91 694.4 1544.11 690.6 1544.11 685.8C1544.11 682.6 1544.11 677.4 1544.11 670.2C1544.51 662.6 1544.71 655.2 1544.71 648C1545.11 640.8 1545.31 635.8 1545.31 633V475.2ZM1865.53 453C1868.33 446.2 1870.73 439.4 1872.73 432.6C1875.13 425.4 1877.33 418 1879.33 410.4C1880.53 406.4 1884.53 404.4 1891.33 404.4C1898.13 404.4 1905.13 406.2 1912.33 409.8C1919.93 413 1923.73 417 1923.73 421.8C1923.73 422.6 1923.33 423.8 1922.53 425.4C1919.73 430.6 1916.33 437.2 1912.33 445.2C1908.33 452.8 1905.33 459.2 1903.33 464.4L1821.73 657C1819.33 662.6 1816.93 668.6 1814.53 675C1812.53 681 1810.53 687 1808.53 693C1805.73 702.2 1800.73 706.8 1793.53 706.8C1789.53 706.8 1785.33 705.6 1780.93 703.2C1776.93 700.8 1773.73 698.2 1771.33 695.4C1768.13 692.2 1765.93 688.8 1764.73 685.2C1763.53 681.6 1761.33 676 1758.13 668.4L1681.33 462.6C1678.93 455.8 1676.13 449.2 1672.93 442.8C1669.73 436 1666.33 428.8 1662.73 421.2C1662.33 420.4 1662.13 419.4 1662.13 418.2C1662.13 414.6 1664.73 412 1669.93 410.4C1675.53 408.4 1681.33 407.4 1687.33 407.4C1692.53 407.4 1697.13 408 1701.13 409.2C1705.53 410.4 1708.13 412.6 1708.93 415.8C1710.13 420.2 1711.53 426 1713.13 433.2C1715.13 440 1717.33 446.6 1719.73 453L1787.53 642L1865.53 453ZM1995.27 475.8C1995.27 471.8 1995.07 465.6 1994.67 457.2C1994.27 448.8 1993.87 440.2 1993.47 431.4C1993.47 422.6 1993.47 416 1993.47 411.6C1993.47 407.6 1997.47 405.6 2005.47 405.6C2011.87 405.6 2018.67 407.2 2025.87 410.4C2033.47 413.2 2037.27 417.2 2037.27 422.4C2037.27 426.4 2036.87 430.8 2036.07 435.6C2035.67 440.4 2035.47 446.2 2035.47 453C2043.47 439.8 2054.87 428.4 2069.67 418.8C2084.47 409.2 2102.27 404.4 2123.07 404.4C2135.07 404.4 2146.27 406.4 2156.67 410.4C2167.07 414.4 2175.47 419.2 2181.87 424.8C2188.67 430.4 2192.07 435.6 2192.07 440.4C2192.07 446.8 2189.67 453.6 2184.87 460.8C2180.47 468 2175.67 471.6 2170.47 471.6C2167.27 471.6 2164.47 469.6 2162.07 465.6C2158.07 458 2151.67 452.4 2142.87 448.8C2134.47 445.2 2127.27 443.4 2121.27 443.4C2104.47 443.4 2088.87 448.6 2074.47 459C2060.47 469.4 2050.07 485.4 2043.27 507C2040.47 515.8 2038.47 525.6 2037.27 536.4C2036.07 547.2 2035.27 560.2 2034.87 575.4C2034.87 590.6 2034.87 609.6 2034.87 632.4C2034.87 644.8 2035.27 656.8 2036.07 668.4C2037.27 680 2037.87 689.2 2037.87 696C2037.87 700 2033.87 702 2025.87 702C2019.47 702 2012.47 700.4 2004.87 697.2C1997.67 694.4 1994.07 690.4 1994.07 685.2C1994.07 682 1994.07 676.8 1994.07 669.6C1994.47 662 1994.67 654.6 1994.67 647.4C1995.07 640.2 1995.27 635.2 1995.27 632.4V475.8ZM2272.88 578.4V584.4C2272.88 610.4 2279.48 631.4 2292.68 647.4C2306.28 663.4 2323.08 671.4 2343.08 671.4C2368.68 671.4 2392.08 667.4 2413.28 659.4C2434.88 651 2453.68 638.2 2469.68 621C2472.48 617.8 2475.08 615.6 2477.48 614.4C2479.88 612.8 2481.88 612 2483.48 612C2487.48 612 2489.48 614.4 2489.48 619.2C2489.48 622.8 2486.48 629.2 2480.48 638.4C2474.88 647.6 2466.08 657.6 2454.08 668.4C2442.08 678.8 2426.88 687.8 2408.48 695.4C2390.08 703 2368.28 706.8 2343.08 706.8C2322.68 706.8 2304.08 701.8 2287.28 691.8C2270.88 681.4 2257.88 666.6 2248.28 647.4C2238.68 628.2 2233.88 605.4 2233.88 579V570.6C2230.28 567.8 2227.28 564.6 2224.88 561C2222.48 557.4 2221.28 554.2 2221.28 551.4C2221.28 546.2 2225.08 543.6 2232.68 543.6C2233.08 543.6 2233.88 543.6 2235.08 543.6C2236.68 543.2 2237.68 543 2238.08 543C2240.88 528.6 2246.48 513.4 2254.88 497.4C2263.68 481.4 2274.68 466.4 2287.88 452.4C2301.08 438 2316.08 426.4 2332.88 417.6C2350.08 408.8 2368.48 404.4 2388.08 404.4C2412.88 404.4 2432.48 408.8 2446.88 417.6C2461.68 426 2472.08 437 2478.08 450.6C2484.48 463.8 2487.68 477.6 2487.68 492C2487.68 505.6 2486.48 516.4 2484.08 524.4C2482.08 532.4 2477.08 539 2469.08 544.2C2461.08 549 2448.08 554.2 2430.08 559.8C2412.08 565.4 2390.48 570 2365.28 573.6C2340.48 576.8 2312.28 578.4 2280.68 578.4H2272.88ZM2289.68 544.8C2319.28 544.8 2344.08 543.2 2364.08 540C2384.08 536.4 2400.68 532.8 2413.88 529.2C2428.28 524.8 2437.48 520 2441.48 514.8C2445.88 509.6 2448.08 501.8 2448.08 491.4C2448.08 456.6 2427.88 439.2 2387.48 439.2C2372.68 439.2 2359.08 442.6 2346.68 449.4C2334.28 456.2 2323.28 465 2313.68 475.8C2304.48 486.6 2296.68 498.2 2290.28 510.6C2284.28 522.6 2280.08 534 2277.68 544.8H2289.68Z" fill="#1F9A58"/>
<mask id="mask1_1_27" style="mask-type:alpha" maskUnits="userSpaceOnUse" x="1056" y="395" width="189" height="250">
<ellipse cx="1150.5" cy="520" rx="94.5" ry="125" fill="#D9D9D9"/>
</mask>
<g mask="url(#mask1_1_27)">
<path d="M1211.69 576.268C1204.35 569.024 1194.29 559.102 1191.98 553.431C1189.94 548.428 1183.84 544.941 1174.76 540.191C1173.69 539.633 1172.65 539.091 1171.71 538.584V528.21H1172.14C1183.34 528.21 1192.45 519.263 1192.45 508.265C1192.45 504.749 1189.54 501.899 1185.97 501.899C1182.39 501.899 1179.49 504.748 1179.49 508.265C1179.49 512.243 1176.19 515.48 1172.14 515.48H1154.16C1153.09 513.908 1151.47 510.57 1151.07 504.411C1156.24 499.858 1170.33 485.913 1171.69 467.999C1171.96 464.493 1169.28 461.439 1165.71 461.177C1162.14 460.912 1159.03 463.545 1158.77 467.052C1157.8 479.804 1147.05 490.73 1142.71 494.647C1141.79 494.406 1140.9 494.093 1140.03 493.747C1145.85 486.066 1150.97 475.317 1150.97 467.526C1150.97 464.01 1148.07 461.16 1144.49 461.16C1140.92 461.16 1138.02 464.009 1138.02 467.526C1138.02 471.631 1134.13 480.363 1129.37 486.526C1126.81 484.016 1124.89 481.521 1123.74 479.881C1126.87 463.456 1122.74 443.4 1114.36 435.712C1111.74 433.314 1107.64 433.451 1105.2 436.022C1102.76 438.592 1102.9 442.62 1105.52 445.019C1109.88 449.017 1114 465.668 1110.55 479.601C1110.17 481.168 1110.4 482.821 1111.2 484.226C1111.47 484.697 1115.15 491.004 1121.79 497.012C1113.62 493.673 1104.33 488.058 1095.66 478.66C1095.4 466.448 1093.19 451.494 1087.63 443.55C1085.6 440.654 1081.57 439.921 1078.62 441.911C1075.67 443.903 1074.93 447.867 1076.95 450.763C1079.51 454.413 1081.52 462.722 1082.33 472.146L1070.52 468.277C1067.13 467.168 1063.46 468.967 1062.32 472.302C1061.19 475.638 1063.03 479.244 1066.42 480.354L1085.48 486.598C1105.52 508.694 1128.96 513.416 1139.64 514.387C1140.26 516.57 1141.02 518.413 1141.82 519.967C1139.24 518.337 1136.21 516.896 1132.63 515.779C1129.89 514.925 1126.9 515.949 1125.29 518.296C1124.76 519.086 1122.04 523.395 1121.74 530.685C1121.42 538.385 1123.84 546.402 1128.94 554.578C1124.6 558.038 1117.5 563.508 1109.63 568.788C1087.04 583.941 1078.63 583.874 1076.59 583.493C1063.1 580.968 1049.74 581.954 1039 582.747C1034.58 583.074 1030.42 583.381 1027 583.381C1016.63 583.381 997.437 580.118 978.874 576.962C958.165 573.442 936.752 569.801 923.326 569.801C904.689 569.801 886.061 578.773 873.717 586.3C860.135 594.581 847.362 605.449 841.931 613.343C835.591 622.56 837.661 629.936 839.323 635.862C840.092 638.606 840.82 641.198 840.82 644.066C840.82 647.757 837.309 652.349 834.213 656.4C830.505 661.254 827 665.84 827 671.224C827 674.74 829.9 677.605 833.479 677.605C837.057 677.605 839.958 674.769 839.958 671.253C840.073 669.938 842.784 666.391 844.579 664.044C848.675 658.685 853.771 652.016 853.781 644.088C854.976 646.048 856.288 647.895 857.718 649.682C863.59 665.32 861.865 681.896 852.577 698.959C845.356 712.225 836.074 720.794 835.989 720.872C834.666 722.076 833.912 723.77 833.912 725.544V777.345C833.91 777.425 833.91 777.505 833.912 777.585V793.444C833.912 794.127 834.024 794.807 834.245 795.457L841.156 815.827C842.038 818.426 844.514 820.179 847.303 820.179H861.125C863.425 820.179 865.552 818.982 866.716 817.032C867.878 815.083 867.903 812.673 866.778 810.703L846.87 775.798V766.511C847.877 749.246 864.589 733.093 879.339 718.837C883.999 714.333 888.531 709.948 892.51 705.612C892.309 706.733 892.083 707.864 891.799 709.021C889.071 720.135 883.404 728.767 883.353 728.843C882.265 730.472 881.996 732.5 882.624 734.348L903.358 795.457C903.54 795.994 903.794 796.504 904.114 796.975L917.937 817.345C919.139 819.116 921.161 820.179 923.328 820.179H937.15C939.704 820.179 942.018 818.706 943.062 816.418C944.107 814.13 943.686 811.452 941.988 809.578L909.743 774.019L903.775 756.429C908.56 741.002 922.96 724.762 936.895 709.053C942.283 702.977 947.569 697.017 952.204 691.18C960.243 692.091 983.243 694.451 1006.07 694.451C1015.94 694.451 1025.77 694.004 1034.34 692.812V738.34L1020.71 791.899C1020.41 793.074 1020.46 794.308 1020.85 795.457L1027.76 815.827C1028.65 818.426 1031.12 820.179 1033.91 820.179H1047.73C1050.03 820.179 1052.15 818.99 1053.31 817.049C1054.48 815.111 1054.51 812.711 1053.4 810.739L1036.8 781.17L1046.99 741.104L1052.18 728.546L1055.08 739.908V777.345C1055.07 777.425 1055.07 777.506 1055.08 777.587V793.444C1055.08 794.128 1055.19 794.808 1055.41 795.457L1062.32 815.827C1063.2 818.427 1065.68 820.18 1068.47 820.18H1082.29C1084.59 820.18 1086.72 818.983 1087.88 817.033C1089.04 815.084 1089.07 812.674 1087.94 810.703L1068.04 775.799V740.45C1070.41 735.018 1079.48 713.527 1081.47 697.371C1095.02 695.068 1115.24 685.574 1122.72 660.625C1127.78 654.432 1153.12 623.076 1163.18 605.103C1169.9 607.539 1181.29 610.814 1191.86 609.85C1198.97 612.944 1205.02 614.506 1210.06 614.506C1213.78 614.506 1216.96 613.667 1219.64 611.993C1223 609.892 1227 605.505 1227 596.536C1227 591.568 1222.58 587.009 1211.69 576.268ZM870.252 709.76C862.218 717.523 853.667 725.795 846.87 734.811V728.186C850.376 724.608 857.656 716.511 863.802 705.336C870.994 692.259 874.41 678.967 874.005 666.058C877.074 668.9 880.481 672.081 884.191 675.725C887.335 678.813 889.66 682.308 891.169 686.189C887.35 693.227 879.043 701.265 870.252 709.76ZM1212.68 601.253C1212.29 601.497 1208.52 603.454 1195.69 597.592C1195.68 597.583 1195.66 597.576 1195.64 597.568C1195.63 597.565 1195.62 597.56 1195.62 597.557C1195.6 597.549 1195.58 597.543 1195.56 597.534C1195.39 597.456 1195.21 597.384 1195.03 597.322C1194.97 597.303 1194.92 597.289 1194.86 597.272C1194.72 597.226 1194.57 597.182 1194.42 597.146C1194.34 597.124 1194.25 597.11 1194.16 597.092C1194.05 597.069 1193.93 597.044 1193.81 597.027C1193.7 597.01 1193.58 597.001 1193.46 596.99C1193.37 596.982 1193.28 596.971 1193.19 596.967C1193.04 596.96 1192.89 596.962 1192.74 596.965C1192.68 596.966 1192.62 596.964 1192.56 596.967C1192.36 596.976 1192.17 596.996 1191.97 597.024C1191.96 597.025 1191.94 597.025 1191.93 597.027C1191.92 597.028 1191.91 597.029 1191.89 597.031C1191.88 597.033 1191.87 597.034 1191.86 597.035C1179.35 598.799 1162.99 591.284 1162.83 591.211C1161.22 590.458 1159.37 590.389 1157.71 591.02C1156.05 591.65 1154.73 592.924 1154.05 594.542C1148.68 607.407 1121.74 641.567 1111.81 653.643C1111.24 654.33 1110.83 655.125 1110.6 655.977C1102.82 684.158 1076.36 685.198 1075.27 685.227C1071.73 685.29 1068.9 688.121 1068.9 691.592C1068.9 698.558 1066.06 708.838 1062.88 718.079L1054.21 684.019V671.223C1054.21 667.707 1051.31 664.857 1047.73 664.857C1044.16 664.857 1041.25 667.706 1041.25 671.223V678.542C1020.07 684.105 979.358 681.074 960.7 679.256C965.076 672.121 967.82 665.193 967.82 658.493C967.82 654.977 964.919 652.127 961.34 652.127C957.762 652.127 954.861 654.976 954.861 658.493C954.861 669.418 940.761 685.316 927.125 700.689C916.232 712.97 905.073 725.555 897.697 738.517L895.855 733.088C898.075 729.222 901.98 721.611 904.3 712.383C908.904 694.072 905.117 678.282 893.351 666.722C888.966 662.413 885.036 658.777 881.57 655.568C870.912 645.707 865.042 640.275 861.474 630.344C857.772 620.039 860.835 611.676 863.213 609.684C863.411 609.517 863.593 609.34 863.766 609.157C878.338 596.958 902.807 582.529 923.327 582.529C935.639 582.529 956.496 586.075 976.665 589.504C996.646 592.901 1015.52 596.11 1027 596.11C1030.9 596.11 1035.31 595.784 1039.97 595.441C1050.46 594.666 1062.36 593.789 1074.17 595.997C1094.36 599.78 1134.06 567.185 1141.82 560.613C1144.38 558.44 1144.81 554.694 1142.8 552.016C1135.59 542.412 1134.38 535.146 1134.71 530.627C1142.28 535.401 1143.13 542.472 1143.21 543.472C1143.44 546.952 1146.48 549.606 1150.03 549.42C1153.6 549.228 1156.34 546.227 1156.15 542.716C1156.12 542.231 1155.64 535.209 1150.57 528.152C1150.84 528.187 1151.12 528.21 1151.41 528.21H1158.75V542.214C1158.75 544.342 1159.83 546.33 1161.63 547.51C1163.47 548.712 1165.99 550.032 1168.66 551.429C1171.92 553.129 1178.62 556.636 1180.05 558.408C1180.08 558.47 1180.11 558.532 1180.14 558.594H1179.92C1176.34 558.594 1173.44 561.443 1173.44 564.96C1173.44 568.476 1176.34 571.326 1179.92 571.326H1188.27C1188.51 571.326 1188.75 571.31 1188.98 571.285C1193.1 575.969 1197.96 580.761 1202.51 585.25C1206.77 589.449 1212.49 595.093 1214.02 597.457C1213.91 599.421 1213.43 600.783 1212.68 601.253Z" fill="#1F9A58"/>
</g>
</svg>
