<svg width="454" height="452" viewBox="0 0 454 452" fill="none" xmlns="http://www.w3.org/2000/svg">
<rect width="454" height="452" rx="93" fill="#1F9A58"/>
<mask id="mask0_1_38" style="mask-type:alpha" maskUnits="userSpaceOnUse" x="0" y="0" width="454" height="452">
<rect width="454" height="452" rx="93" fill="#1F9A58"/>
</mask>
<g mask="url(#mask0_1_38)">
<path d="M315 209.6C315 214.667 313.267 219.067 309.8 222.8C306.333 226.267 301.533 228 295.4 228C290.333 228 285.667 225.467 281.4 220.4C277.4 215.067 275.4 209.6 275.4 204C275.4 198.667 277 194.133 280.2 190.4C283.667 186.667 288.733 184.8 295.4 184.8C300.2 184.8 304.6 187.467 308.6 192.8C312.867 198.133 315 203.733 315 209.6ZM281.8 316.8C281.8 314.133 281.667 310 281.4 304.4C281.133 298.8 280.867 293.067 280.6 287.2C280.6 281.333 280.6 276.933 280.6 274C280.6 271.6 283.133 270.4 288.2 270.4C292.733 270.4 297.533 271.467 302.6 273.6C307.667 275.467 310.2 278 310.2 281.2C310.2 283.333 310.067 286.667 309.8 291.2C309.8 295.467 309.667 300 309.4 304.8C309.4 309.6 309.4 313.6 309.4 316.8V422C309.4 423.6 309.533 427.2 309.8 432.8C310.067 438.4 310.2 444.267 310.2 450.4C310.467 456.533 310.6 461.2 310.6 464.4C310.6 466.8 308.067 468 303 468C298.733 468 293.933 466.933 288.6 464.8C283.533 462.933 281 460.4 281 457.2C281 455.067 281 451.6 281 446.8C281.267 441.733 281.4 436.8 281.4 432C281.667 427.2 281.8 423.867 281.8 422V316.8Z" fill="#FFA800"/>
<path d="M386.878 228C386.878 225.333 386.745 221.2 386.478 215.6C386.211 210 385.945 204.267 385.678 198.4C385.678 192.533 385.678 188.133 385.678 185.2C385.678 183.867 386.478 182.933 388.078 182.4C389.678 181.6 391.545 181.2 393.678 181.2C398.211 181.2 402.878 182.267 407.678 184.4C412.745 186.267 415.278 188.933 415.278 192.4C415.278 194.533 415.145 197.867 414.878 202.4C414.878 206.667 414.745 211.2 414.478 216C414.478 220.8 414.478 224.8 414.478 228V422C414.478 423.6 414.611 427.2 414.878 432.8C415.145 438.4 415.278 444.267 415.278 450.4C415.545 456.533 415.678 461.2 415.678 464.4C415.678 465.733 414.878 466.667 413.278 467.2C411.678 468 409.811 468.4 407.678 468.4C403.411 468.4 398.745 467.333 393.678 465.2C388.611 463.333 386.078 460.667 386.078 457.2C386.078 455.067 386.078 451.6 386.078 446.8C386.345 441.733 386.478 436.8 386.478 432C386.745 427.2 386.878 423.867 386.878 422V228Z" fill="white"/>
<path d="M256.069 309.776C244.84 299.634 229.459 285.744 225.929 277.804C222.813 270.799 213.476 265.918 199.589 259.269C197.961 258.487 196.37 257.728 194.934 257.019V242.495H195.594C212.712 242.495 226.639 229.968 226.639 214.572C226.639 209.649 222.203 205.66 216.73 205.66C211.259 205.66 206.822 209.648 206.822 214.572C206.822 220.141 201.786 224.672 195.593 224.672H168.097C166.456 222.472 163.985 217.798 163.369 209.176C171.283 202.801 192.824 183.278 194.904 158.199C195.312 153.292 191.218 149.015 185.761 148.649C180.304 148.278 175.551 151.963 175.144 156.874C173.661 174.726 157.223 190.022 150.587 195.506C149.177 195.169 147.818 194.731 146.488 194.247C155.386 183.493 163.226 168.445 163.226 157.537C163.226 152.615 158.79 148.625 153.318 148.625C147.847 148.625 143.41 152.614 143.41 157.537C143.41 163.284 137.473 175.508 130.183 184.137C126.272 180.623 123.338 177.13 121.582 174.834C126.366 151.839 120.056 123.76 107.236 112.998C103.237 109.64 96.9656 109.832 93.2324 113.432C89.4993 117.03 89.7143 122.669 93.7162 126.028C100.382 131.624 106.693 154.936 101.418 174.443C100.824 176.636 101.179 178.95 102.409 180.918C102.82 181.576 108.453 190.406 118.606 198.818C106.109 194.143 91.904 186.282 78.639 173.124C78.2436 156.028 74.8688 135.092 66.368 123.971C63.2691 119.916 57.0989 118.89 52.5905 121.676C48.082 124.464 46.9388 130.014 50.04 134.069C53.9452 139.179 57.0273 150.812 58.2672 164.006L40.2011 158.588C35.0117 157.036 29.4006 159.555 27.6684 164.224C25.9374 168.894 28.7436 173.942 33.9354 175.497L63.0851 184.238C93.721 215.172 129.569 221.783 145.898 223.142C146.849 226.199 148.003 228.779 149.224 230.955C145.288 228.673 140.656 226.655 135.18 225.091C130.983 223.896 126.415 225.329 123.959 228.615C123.134 229.721 118.988 235.754 118.526 245.96C118.037 256.74 121.734 267.964 129.527 279.411C122.895 284.255 112.04 291.912 100.008 299.303C65.4696 320.519 52.6048 320.424 49.4892 319.891C28.8594 316.356 8.42319 317.737 -8.0004 318.847C-14.7476 319.304 -21.1172 319.734 -26.3461 319.734C-42.1998 319.734 -71.5491 315.165 -99.9332 310.748C-131.599 305.819 -164.342 300.723 -184.871 300.723C-213.369 300.723 -241.853 313.283 -260.729 323.821C-281.498 335.414 -301.029 350.629 -309.332 361.68C-319.027 374.584 -315.862 384.912 -313.321 393.208C-312.144 397.049 -311.032 400.678 -311.032 404.694C-311.032 409.861 -316.4 416.29 -321.135 421.961C-326.805 428.756 -332.164 435.177 -332.164 442.715C-332.164 447.637 -327.729 451.647 -322.257 451.647C-316.786 451.647 -312.35 447.677 -312.35 442.755C-312.173 440.914 -308.028 435.948 -305.284 432.662C-299.02 425.16 -291.228 415.823 -291.214 404.724C-289.386 407.468 -287.38 410.054 -285.193 412.556C-276.214 434.448 -278.852 457.656 -293.053 481.543C-304.095 500.116 -318.288 512.113 -318.419 512.221C-320.442 513.907 -321.595 516.279 -321.595 518.763V591.284C-321.597 591.396 -321.597 591.508 -321.595 591.62V613.822C-321.595 614.779 -321.423 615.731 -321.086 616.64L-310.517 645.158C-309.169 648.797 -305.383 651.252 -301.118 651.252H-279.983C-276.466 651.252 -273.213 649.575 -271.434 646.846C-269.657 644.117 -269.62 640.743 -271.339 637.984L-301.78 589.118V576.117C-300.241 551.945 -274.686 529.331 -252.132 509.373C-245.006 503.066 -238.076 496.927 -231.993 490.857C-232.3 492.426 -232.645 494.01 -233.08 495.63C-237.252 511.19 -245.916 523.275 -245.995 523.381C-247.658 525.661 -248.069 528.501 -247.11 531.088L-215.405 616.641C-215.126 617.392 -214.738 618.107 -214.248 618.766L-193.112 647.283C-191.275 649.763 -188.182 651.252 -184.869 651.252H-163.733C-159.829 651.252 -156.29 649.19 -154.693 645.985C-153.096 642.782 -153.739 639.033 -156.336 636.41L-205.641 586.628L-214.767 562.002C-207.45 540.404 -185.432 517.668 -164.123 495.675C-155.884 487.169 -147.801 478.824 -140.714 470.652C-128.422 471.929 -93.2529 475.232 -58.3546 475.232C-43.2582 475.232 -28.2264 474.606 -15.1167 472.938V536.677L-35.9579 611.66C-36.4155 613.304 -36.3426 615.032 -35.7453 616.64L-25.1765 645.158C-23.8278 648.797 -20.0421 651.252 -15.7773 651.252H5.35898C8.86398 651.252 12.1086 649.586 13.8897 646.87C15.6721 644.155 15.7259 640.795 14.0319 638.035L-11.3596 596.639L4.23007 540.547L12.1647 522.965L16.5872 538.873V591.284C16.5848 591.396 16.5848 591.509 16.5872 591.622V613.823C16.5872 614.78 16.7592 615.732 17.0961 616.641L27.6649 645.159C29.0136 648.798 32.7993 651.253 37.0641 651.253H58.2004C61.7173 651.253 64.9702 649.576 66.749 646.847C68.5266 644.118 68.5637 640.744 66.8446 637.985L36.4034 589.119V539.631C40.0386 532.026 53.9034 501.938 56.9472 479.32C77.6714 476.096 108.584 462.805 120.026 427.875C127.753 419.205 166.51 375.306 181.891 350.144C192.169 353.556 209.574 358.14 225.74 356.79C236.623 361.122 245.872 363.309 253.58 363.309C259.266 363.309 264.127 362.135 268.221 359.791C273.354 356.849 279.476 350.707 279.476 338.152C279.479 331.196 272.722 324.813 256.069 309.776ZM-266.028 496.664C-278.312 507.533 -291.388 519.114 -301.78 531.737V522.461C-296.42 517.452 -285.288 506.116 -275.889 490.471C-264.893 472.163 -259.67 453.554 -260.289 435.482C-255.596 439.461 -250.386 443.915 -244.713 449.016C-239.906 453.339 -236.35 458.232 -234.043 463.666C-239.882 473.518 -252.585 484.771 -266.028 496.664ZM257.58 344.756C256.985 345.096 251.213 347.836 231.607 339.629C231.581 339.617 231.553 339.608 231.526 339.596C231.513 339.591 231.501 339.585 231.488 339.581C231.459 339.569 231.429 339.56 231.4 339.548C231.135 339.439 230.865 339.339 230.588 339.252C230.503 339.225 230.417 339.206 230.334 339.181C230.113 339.116 229.892 339.055 229.665 339.005C229.532 338.975 229.399 338.955 229.267 338.93C229.089 338.897 228.91 338.863 228.729 338.838C228.55 338.815 228.37 338.802 228.19 338.787C228.054 338.776 227.918 338.761 227.781 338.754C227.548 338.745 227.316 338.747 227.084 338.751C226.996 338.753 226.909 338.75 226.82 338.754C226.516 338.767 226.211 338.795 225.91 338.834C225.891 338.836 225.873 338.836 225.855 338.838C225.836 338.84 225.817 338.841 225.796 338.845C225.777 338.847 225.759 338.848 225.743 338.85C206.61 341.319 181.597 330.799 181.357 330.697C178.898 329.642 176.067 329.545 173.528 330.429C170.988 331.311 168.964 333.094 167.932 335.359C159.716 353.37 118.519 401.194 103.338 418.1C102.474 419.063 101.842 420.175 101.482 421.368C89.5877 460.821 49.1273 462.278 47.4584 462.319C42.0564 462.406 37.7271 466.37 37.7271 471.23C37.7271 480.983 33.3858 495.374 28.5226 508.311L15.2695 460.628V442.712C15.2695 437.79 10.8339 433.8 5.36136 433.8C-0.109955 433.8 -4.54678 437.789 -4.54678 442.712V452.959C-36.9388 460.747 -99.1925 456.505 -127.723 453.959C-121.031 443.971 -116.836 434.271 -116.836 424.89C-116.836 419.968 -121.271 415.978 -126.744 415.978C-132.215 415.978 -136.652 419.967 -136.652 424.89C-136.652 440.186 -158.212 462.443 -179.063 483.965C-195.72 501.159 -212.782 518.778 -224.061 536.924L-226.878 529.324C-223.483 523.911 -217.512 513.256 -213.964 500.337C-206.924 474.701 -212.714 452.596 -230.706 436.411C-237.412 430.379 -243.421 425.289 -248.721 420.796C-265.018 406.991 -273.994 399.385 -279.45 385.482C-285.11 371.056 -280.427 359.348 -276.791 356.558C-276.488 356.325 -276.209 356.077 -275.945 355.82C-253.663 338.741 -216.247 318.541 -184.87 318.541C-166.043 318.541 -134.152 323.506 -103.31 328.307C-72.7581 333.063 -43.9021 337.554 -26.3449 337.554C-20.3742 337.554 -13.6425 337.099 -6.51788 336.618C9.53296 335.533 27.7234 334.306 45.7788 337.396C76.6596 342.692 137.364 297.06 149.22 287.86C153.141 284.816 153.795 279.572 150.722 275.823C139.699 262.377 137.855 252.205 138.352 245.878C149.934 252.561 151.229 262.461 151.356 263.861C151.704 268.734 156.352 272.449 161.783 272.189C167.247 271.92 171.434 267.719 171.136 262.804C171.095 262.124 170.359 252.294 162.601 242.414C163.025 242.463 163.453 242.494 163.884 242.494H175.114V262.1C175.114 265.08 176.769 267.863 179.525 269.514C182.333 271.198 186.191 273.046 190.275 275.001C195.25 277.382 205.504 282.291 207.686 284.772C207.726 284.858 207.778 284.945 207.819 285.032H207.479C202.008 285.032 197.571 289.021 197.571 293.945C197.571 298.867 202.007 302.857 207.479 302.857H220.25C220.62 302.857 220.985 302.835 221.344 302.8C227.646 309.358 235.067 316.066 242.028 322.351C248.536 328.229 257.284 336.13 259.623 339.441C259.455 342.19 258.731 344.097 257.58 344.756Z" fill="white"/>
</g>
</svg>
